<svg xmlns="http://www.w3.org/2000/svg" xmlns:xlink="http://www.w3.org/1999/xlink" width="500" zoomAndPan="magnify" viewBox="0 0 375 374.999991" height="500" preserveAspectRatio="xMidYMid meet" version="1.0"><defs><g/><clipPath id="37da1e6395"><path d="M 71.089844 11.625 L 303.589844 11.625 L 303.589844 282.375 L 71.089844 282.375 Z M 71.089844 11.625 " clip-rule="nonzero"/></clipPath></defs><g clip-path="url(#37da1e6395)"><path fill="#004aad" d="M 181.503906 155.871094 L 119.847656 155.871094 L 119.847656 226.785156 L 71.660156 282.339844 L 71.132812 282.339844 L 71.132812 107.789062 L 119.847656 155.871094 L 119.847656 107.789062 L 223.273438 107.789062 Z M 303.867188 15.09375 L 264.515625 60.335938 L 71.132812 60.335938 L 71.132812 11.625 L 303.867188 11.625 Z M 303.867188 15.09375 " fill-opacity="1" fill-rule="nonzero"/></g><g fill="#004aad" fill-opacity="1"><g transform="translate(73.904122, 322.67856)"><g><path d="M 2.734375 0 L 2.734375 -31.5 L 23.59375 -31.5 L 23.59375 -26.015625 L 9.390625 -26.015625 L 9.390625 -18.5 L 22.203125 -18.5 L 22.203125 -13.015625 L 9.390625 -13.015625 L 9.390625 0 Z M 2.734375 0 "/></g></g></g><g fill="#004aad" fill-opacity="1"><g transform="translate(99.238052, 322.67856)"><g><path d="M 2.609375 0 L 2.609375 -23.625 L 9.171875 -23.625 L 9.171875 0 Z M 5.90625 -26.671875 C 4.9375 -26.671875 4.101562 -26.992188 3.40625 -27.640625 C 2.707031 -28.296875 2.359375 -29.082031 2.359375 -30 C 2.359375 -30.90625 2.707031 -31.679688 3.40625 -32.328125 C 4.101562 -32.972656 4.9375 -33.296875 5.90625 -33.296875 C 6.875 -33.296875 7.707031 -32.972656 8.40625 -32.328125 C 9.101562 -31.679688 9.453125 -30.90625 9.453125 -30 C 9.453125 -29.082031 9.101562 -28.296875 8.40625 -27.640625 C 7.707031 -26.992188 6.875 -26.671875 5.90625 -26.671875 Z M 5.90625 -26.671875 "/></g></g></g><g fill="#004aad" fill-opacity="1"><g transform="translate(111.020565, 322.67856)"><g><path d="M 9.171875 -13.65625 L 9.171875 0 L 2.609375 0 L 2.609375 -23.625 L 8.859375 -23.625 L 8.859375 -19.453125 L 9.140625 -19.453125 C 9.671875 -20.828125 10.546875 -21.914062 11.765625 -22.71875 C 12.992188 -23.53125 14.488281 -23.9375 16.25 -23.9375 C 18.707031 -23.9375 20.675781 -23.144531 22.15625 -21.5625 C 23.644531 -19.976562 24.390625 -17.804688 24.390625 -15.046875 L 24.390625 0 L 17.84375 0 L 17.84375 -13.875 C 17.851562 -15.320312 17.484375 -16.453125 16.734375 -17.265625 C 15.984375 -18.078125 14.953125 -18.484375 13.640625 -18.484375 C 12.316406 -18.484375 11.242188 -18.0625 10.421875 -17.21875 C 9.597656 -16.375 9.179688 -15.1875 9.171875 -13.65625 Z M 9.171875 -13.65625 "/></g></g></g><g fill="#004aad" fill-opacity="1"><g transform="translate(137.954201, 322.67856)"><g><path d="M 13.375 0.46875 C 10.957031 0.46875 8.867188 -0.0234375 7.109375 -1.015625 C 5.359375 -2.003906 4.007812 -3.410156 3.0625 -5.234375 C 2.125 -7.054688 1.65625 -9.210938 1.65625 -11.703125 C 1.65625 -14.128906 2.125 -16.257812 3.0625 -18.09375 C 4.007812 -19.9375 5.34375 -21.367188 7.0625 -22.390625 C 8.78125 -23.421875 10.800781 -23.9375 13.125 -23.9375 C 15.207031 -23.9375 17.082031 -23.492188 18.75 -22.609375 C 20.425781 -21.722656 21.753906 -20.390625 22.734375 -18.609375 C 23.722656 -16.835938 24.21875 -14.613281 24.21875 -11.9375 L 24.21875 -10.140625 L 8.140625 -10.140625 L 8.140625 -10.125 C 8.140625 -8.351562 8.617188 -6.960938 9.578125 -5.953125 C 10.546875 -4.941406 11.847656 -4.4375 13.484375 -4.4375 C 14.585938 -4.4375 15.535156 -4.664062 16.328125 -5.125 C 17.128906 -5.582031 17.695312 -6.265625 18.03125 -7.171875 L 24.09375 -6.765625 C 23.625 -4.566406 22.453125 -2.8125 20.578125 -1.5 C 18.703125 -0.1875 16.300781 0.46875 13.375 0.46875 Z M 8.140625 -14.203125 L 18.0625 -14.203125 C 18.050781 -15.597656 17.597656 -16.753906 16.703125 -17.671875 C 15.804688 -18.585938 14.648438 -19.046875 13.234375 -19.046875 C 11.773438 -19.046875 10.578125 -18.570312 9.640625 -17.625 C 8.710938 -16.6875 8.210938 -15.546875 8.140625 -14.203125 Z M 8.140625 -14.203125 "/></g></g></g><g fill="#004aad" fill-opacity="1"><g transform="translate(163.841869, 322.67856)"><g/></g></g><g fill="#004aad" fill-opacity="1"><g transform="translate(173.886231, 322.67856)"><g><path d="M 2.734375 0 L 2.734375 -31.5 L 23.59375 -31.5 L 23.59375 -26.015625 L 9.390625 -26.015625 L 9.390625 -18.5 L 22.203125 -18.5 L 22.203125 -13.015625 L 9.390625 -13.015625 L 9.390625 0 Z M 2.734375 0 "/></g></g></g><g fill="#004aad" fill-opacity="1"><g transform="translate(199.220162, 322.67856)"><g><path d="M 2.609375 0 L 2.609375 -23.625 L 9.171875 -23.625 L 9.171875 0 Z M 5.90625 -26.671875 C 4.9375 -26.671875 4.101562 -26.992188 3.40625 -27.640625 C 2.707031 -28.296875 2.359375 -29.082031 2.359375 -30 C 2.359375 -30.90625 2.707031 -31.679688 3.40625 -32.328125 C 4.101562 -32.972656 4.9375 -33.296875 5.90625 -33.296875 C 6.875 -33.296875 7.707031 -32.972656 8.40625 -32.328125 C 9.101562 -31.679688 9.453125 -30.90625 9.453125 -30 C 9.453125 -29.082031 9.101562 -28.296875 8.40625 -27.640625 C 7.707031 -26.992188 6.875 -26.671875 5.90625 -26.671875 Z M 5.90625 -26.671875 "/></g></g></g><g fill="#004aad" fill-opacity="1"><g transform="translate(211.002674, 322.67856)"><g><path d="M 9.171875 -13.65625 L 9.171875 0 L 2.609375 0 L 2.609375 -23.625 L 8.859375 -23.625 L 8.859375 -19.453125 L 9.140625 -19.453125 C 9.671875 -20.828125 10.546875 -21.914062 11.765625 -22.71875 C 12.992188 -23.53125 14.488281 -23.9375 16.25 -23.9375 C 18.707031 -23.9375 20.675781 -23.144531 22.15625 -21.5625 C 23.644531 -19.976562 24.390625 -17.804688 24.390625 -15.046875 L 24.390625 0 L 17.84375 0 L 17.84375 -13.875 C 17.851562 -15.320312 17.484375 -16.453125 16.734375 -17.265625 C 15.984375 -18.078125 14.953125 -18.484375 13.640625 -18.484375 C 12.316406 -18.484375 11.242188 -18.0625 10.421875 -17.21875 C 9.597656 -16.375 9.179688 -15.1875 9.171875 -13.65625 Z M 9.171875 -13.65625 "/></g></g></g><g fill="#004aad" fill-opacity="1"><g transform="translate(237.936311, 322.67856)"><g><path d="M 2.609375 0 L 2.609375 -23.625 L 9.171875 -23.625 L 9.171875 0 Z M 5.90625 -26.671875 C 4.9375 -26.671875 4.101562 -26.992188 3.40625 -27.640625 C 2.707031 -28.296875 2.359375 -29.082031 2.359375 -30 C 2.359375 -30.90625 2.707031 -31.679688 3.40625 -32.328125 C 4.101562 -32.972656 4.9375 -33.296875 5.90625 -33.296875 C 6.875 -33.296875 7.707031 -32.972656 8.40625 -32.328125 C 9.101562 -31.679688 9.453125 -30.90625 9.453125 -30 C 9.453125 -29.082031 9.101562 -28.296875 8.40625 -27.640625 C 7.707031 -26.992188 6.875 -26.671875 5.90625 -26.671875 Z M 5.90625 -26.671875 "/></g></g></g><g fill="#004aad" fill-opacity="1"><g transform="translate(249.718824, 322.67856)"><g><path d="M 22.265625 -16.890625 L 16.265625 -16.515625 C 16.109375 -17.273438 15.695312 -17.925781 15.03125 -18.46875 C 14.363281 -19.007812 13.457031 -19.28125 12.3125 -19.28125 C 11.300781 -19.28125 10.441406 -19.066406 9.734375 -18.640625 C 9.035156 -18.222656 8.691406 -17.660156 8.703125 -16.953125 C 8.691406 -16.390625 8.914062 -15.910156 9.375 -15.515625 C 9.832031 -15.128906 10.609375 -14.816406 11.703125 -14.578125 L 15.984375 -13.71875 C 20.523438 -12.78125 22.800781 -10.648438 22.8125 -7.328125 C 22.8125 -5.773438 22.359375 -4.410156 21.453125 -3.234375 C 20.546875 -2.066406 19.300781 -1.15625 17.71875 -0.5 C 16.132812 0.144531 14.328125 0.46875 12.296875 0.46875 C 9.160156 0.46875 6.664062 -0.179688 4.8125 -1.484375 C 2.957031 -2.796875 1.875 -4.582031 1.5625 -6.84375 L 8.015625 -7.1875 C 8.222656 -6.21875 8.695312 -5.488281 9.4375 -5 C 10.175781 -4.507812 11.132812 -4.265625 12.3125 -4.265625 C 13.457031 -4.265625 14.378906 -4.488281 15.078125 -4.9375 C 15.785156 -5.382812 16.144531 -5.957031 16.15625 -6.65625 C 16.125 -7.820312 15.113281 -8.609375 13.125 -9.015625 L 9.03125 -9.828125 C 4.457031 -10.742188 2.179688 -12.992188 2.203125 -16.578125 C 2.191406 -18.859375 3.097656 -20.65625 4.921875 -21.96875 C 6.753906 -23.28125 9.1875 -23.9375 12.21875 -23.9375 C 15.195312 -23.9375 17.546875 -23.304688 19.265625 -22.046875 C 20.984375 -20.785156 21.984375 -19.066406 22.265625 -16.890625 Z M 22.265625 -16.890625 "/></g></g></g><g fill="#004aad" fill-opacity="1"><g transform="translate(274.052928, 322.67856)"><g><path d="M 9.171875 -13.65625 L 9.171875 0 L 2.609375 0 L 2.609375 -31.5 L 8.984375 -31.5 L 8.984375 -19.453125 L 9.265625 -19.453125 C 9.804688 -20.847656 10.664062 -21.941406 11.84375 -22.734375 C 13.03125 -23.535156 14.519531 -23.9375 16.3125 -23.9375 C 18.78125 -23.9375 20.757812 -23.144531 22.25 -21.5625 C 23.75 -19.988281 24.492188 -17.816406 24.484375 -15.046875 L 24.484375 0 L 17.9375 0 L 17.9375 -13.875 C 17.945312 -15.332031 17.578125 -16.460938 16.828125 -17.265625 C 16.085938 -18.078125 15.050781 -18.484375 13.71875 -18.484375 C 12.382812 -18.484375 11.296875 -18.0625 10.453125 -17.21875 C 9.609375 -16.375 9.179688 -15.1875 9.171875 -13.65625 Z M 9.171875 -13.65625 "/></g></g></g><g fill="#004aad" fill-opacity="1"><g transform="translate(56.24322, 356.428062)"><g><path d="M 17.015625 -12.640625 L 14.78125 -12.640625 C 14.601562 -13.484375 14.257812 -14.191406 13.75 -14.765625 C 13.238281 -15.347656 12.625 -15.789062 11.90625 -16.09375 C 11.195312 -16.394531 10.4375 -16.546875 9.625 -16.546875 C 8.507812 -16.546875 7.5 -16.265625 6.59375 -15.703125 C 5.695312 -15.140625 4.984375 -14.3125 4.453125 -13.21875 C 3.921875 -12.125 3.65625 -10.78125 3.65625 -9.1875 C 3.65625 -7.59375 3.921875 -6.25 4.453125 -5.15625 C 4.984375 -4.0625 5.695312 -3.234375 6.59375 -2.671875 C 7.5 -2.109375 8.507812 -1.828125 9.625 -1.828125 C 10.4375 -1.828125 11.195312 -1.976562 11.90625 -2.28125 C 12.625 -2.582031 13.238281 -3.019531 13.75 -3.59375 C 14.257812 -4.175781 14.601562 -4.894531 14.78125 -5.75 L 17.015625 -5.75 C 16.785156 -4.488281 16.320312 -3.410156 15.625 -2.515625 C 14.925781 -1.617188 14.054688 -0.929688 13.015625 -0.453125 C 11.984375 0.015625 10.851562 0.25 9.625 0.25 C 8.050781 0.25 6.65625 -0.128906 5.4375 -0.890625 C 4.21875 -1.660156 3.253906 -2.75 2.546875 -4.15625 C 1.847656 -5.570312 1.5 -7.25 1.5 -9.1875 C 1.5 -11.125 1.847656 -12.796875 2.546875 -14.203125 C 3.253906 -15.617188 4.21875 -16.707031 5.4375 -17.46875 C 6.65625 -18.238281 8.050781 -18.625 9.625 -18.625 C 10.851562 -18.625 11.984375 -18.382812 13.015625 -17.90625 C 14.054688 -17.4375 14.925781 -16.753906 15.625 -15.859375 C 16.320312 -14.960938 16.785156 -13.890625 17.015625 -12.640625 Z M 17.015625 -12.640625 "/></g></g></g><g fill="#004aad" fill-opacity="1"><g transform="translate(88.228175, 356.428062)"><g><path d="M 17.734375 -9.1875 C 17.734375 -7.25 17.378906 -5.570312 16.671875 -4.15625 C 15.972656 -2.75 15.015625 -1.660156 13.796875 -0.890625 C 12.578125 -0.128906 11.1875 0.25 9.625 0.25 C 8.050781 0.25 6.65625 -0.128906 5.4375 -0.890625 C 4.21875 -1.660156 3.253906 -2.75 2.546875 -4.15625 C 1.847656 -5.570312 1.5 -7.25 1.5 -9.1875 C 1.5 -11.125 1.847656 -12.796875 2.546875 -14.203125 C 3.253906 -15.617188 4.21875 -16.707031 5.4375 -17.46875 C 6.65625 -18.238281 8.050781 -18.625 9.625 -18.625 C 11.1875 -18.625 12.578125 -18.238281 13.796875 -17.46875 C 15.015625 -16.707031 15.972656 -15.617188 16.671875 -14.203125 C 17.378906 -12.796875 17.734375 -11.125 17.734375 -9.1875 Z M 15.578125 -9.1875 C 15.578125 -10.78125 15.3125 -12.125 14.78125 -13.21875 C 14.25 -14.3125 13.53125 -15.140625 12.625 -15.703125 C 11.726562 -16.265625 10.726562 -16.546875 9.625 -16.546875 C 8.507812 -16.546875 7.5 -16.265625 6.59375 -15.703125 C 5.695312 -15.140625 4.984375 -14.3125 4.453125 -13.21875 C 3.921875 -12.125 3.65625 -10.78125 3.65625 -9.1875 C 3.65625 -7.59375 3.921875 -6.25 4.453125 -5.15625 C 4.984375 -4.0625 5.695312 -3.234375 6.59375 -2.671875 C 7.5 -2.109375 8.507812 -1.828125 9.625 -1.828125 C 10.726562 -1.828125 11.726562 -2.109375 12.625 -2.671875 C 13.53125 -3.234375 14.25 -4.0625 14.78125 -5.15625 C 15.3125 -6.25 15.578125 -7.59375 15.578125 -9.1875 Z M 15.578125 -9.1875 "/></g></g></g><g fill="#004aad" fill-opacity="1"><g transform="translate(121.074036, 356.428062)"><g><path d="M 2.21875 0 L 2.21875 -18.375 L 8.4375 -18.375 C 9.875 -18.375 11.050781 -18.128906 11.96875 -17.640625 C 12.882812 -17.148438 13.5625 -16.476562 14 -15.625 C 14.445312 -14.78125 14.671875 -13.816406 14.671875 -12.734375 C 14.671875 -11.515625 14.390625 -10.453125 13.828125 -9.546875 C 13.273438 -8.640625 12.410156 -7.988281 11.234375 -7.59375 L 15.390625 0 L 12.8125 0 L 8.9375 -7.1875 C 8.789062 -7.175781 8.632812 -7.171875 8.46875 -7.171875 L 4.453125 -7.171875 L 4.453125 0 Z M 4.453125 -9.1875 L 8.390625 -9.1875 C 9.867188 -9.1875 10.921875 -9.503906 11.546875 -10.140625 C 12.171875 -10.773438 12.484375 -11.640625 12.484375 -12.734375 C 12.484375 -13.847656 12.164062 -14.738281 11.53125 -15.40625 C 10.90625 -16.070312 9.847656 -16.40625 8.359375 -16.40625 L 4.453125 -16.40625 Z M 4.453125 -9.1875 "/></g></g></g><g fill="#004aad" fill-opacity="1"><g transform="translate(150.834987, 356.428062)"><g><path d="M 2.21875 0 L 2.21875 -18.375 L 8.4375 -18.375 C 9.875 -18.375 11.050781 -18.113281 11.96875 -17.59375 C 12.882812 -17.082031 13.5625 -16.382812 14 -15.5 C 14.445312 -14.625 14.671875 -13.644531 14.671875 -12.5625 C 14.671875 -11.476562 14.453125 -10.492188 14.015625 -9.609375 C 13.578125 -8.722656 12.898438 -8.019531 11.984375 -7.5 C 11.066406 -6.976562 9.894531 -6.71875 8.46875 -6.71875 L 4.453125 -6.71875 L 4.453125 0 Z M 4.453125 -8.6875 L 8.390625 -8.6875 C 9.867188 -8.6875 10.921875 -9.054688 11.546875 -9.796875 C 12.171875 -10.535156 12.484375 -11.457031 12.484375 -12.5625 C 12.484375 -13.664062 12.171875 -14.582031 11.546875 -15.3125 C 10.921875 -16.039062 9.859375 -16.40625 8.359375 -16.40625 L 4.453125 -16.40625 Z M 4.453125 -8.6875 "/></g></g></g><g fill="#004aad" fill-opacity="1"><g transform="translate(180.488321, 356.428062)"><g><path d="M 17.734375 -9.1875 C 17.734375 -7.25 17.378906 -5.570312 16.671875 -4.15625 C 15.972656 -2.75 15.015625 -1.660156 13.796875 -0.890625 C 12.578125 -0.128906 11.1875 0.25 9.625 0.25 C 8.050781 0.25 6.65625 -0.128906 5.4375 -0.890625 C 4.21875 -1.660156 3.253906 -2.75 2.546875 -4.15625 C 1.847656 -5.570312 1.5 -7.25 1.5 -9.1875 C 1.5 -11.125 1.847656 -12.796875 2.546875 -14.203125 C 3.253906 -15.617188 4.21875 -16.707031 5.4375 -17.46875 C 6.65625 -18.238281 8.050781 -18.625 9.625 -18.625 C 11.1875 -18.625 12.578125 -18.238281 13.796875 -17.46875 C 15.015625 -16.707031 15.972656 -15.617188 16.671875 -14.203125 C 17.378906 -12.796875 17.734375 -11.125 17.734375 -9.1875 Z M 15.578125 -9.1875 C 15.578125 -10.78125 15.3125 -12.125 14.78125 -13.21875 C 14.25 -14.3125 13.53125 -15.140625 12.625 -15.703125 C 11.726562 -16.265625 10.726562 -16.546875 9.625 -16.546875 C 8.507812 -16.546875 7.5 -16.265625 6.59375 -15.703125 C 5.695312 -15.140625 4.984375 -14.3125 4.453125 -13.21875 C 3.921875 -12.125 3.65625 -10.78125 3.65625 -9.1875 C 3.65625 -7.59375 3.921875 -6.25 4.453125 -5.15625 C 4.984375 -4.0625 5.695312 -3.234375 6.59375 -2.671875 C 7.5 -2.109375 8.507812 -1.828125 9.625 -1.828125 C 10.726562 -1.828125 11.726562 -2.109375 12.625 -2.671875 C 13.53125 -3.234375 14.25 -4.0625 14.78125 -5.15625 C 15.3125 -6.25 15.578125 -7.59375 15.578125 -9.1875 Z M 15.578125 -9.1875 "/></g></g></g><g fill="#004aad" fill-opacity="1"><g transform="translate(213.334188, 356.428062)"><g><path d="M 2.21875 0 L 2.21875 -18.375 L 8.4375 -18.375 C 9.875 -18.375 11.050781 -18.128906 11.96875 -17.640625 C 12.882812 -17.148438 13.5625 -16.476562 14 -15.625 C 14.445312 -14.78125 14.671875 -13.816406 14.671875 -12.734375 C 14.671875 -11.515625 14.390625 -10.453125 13.828125 -9.546875 C 13.273438 -8.640625 12.410156 -7.988281 11.234375 -7.59375 L 15.390625 0 L 12.8125 0 L 8.9375 -7.1875 C 8.789062 -7.175781 8.632812 -7.171875 8.46875 -7.171875 L 4.453125 -7.171875 L 4.453125 0 Z M 4.453125 -9.1875 L 8.390625 -9.1875 C 9.867188 -9.1875 10.921875 -9.503906 11.546875 -10.140625 C 12.171875 -10.773438 12.484375 -11.640625 12.484375 -12.734375 C 12.484375 -13.847656 12.164062 -14.738281 11.53125 -15.40625 C 10.90625 -16.070312 9.847656 -16.40625 8.359375 -16.40625 L 4.453125 -16.40625 Z M 4.453125 -9.1875 "/></g></g></g><g fill="#004aad" fill-opacity="1"><g transform="translate(243.09515, 356.428062)"><g><path d="M 2.984375 0 L 0.640625 0 L 7.390625 -18.375 L 9.6875 -18.375 L 16.4375 0 L 14.109375 0 L 12.25 -5.203125 L 4.828125 -5.203125 Z M 5.53125 -7.171875 L 11.5625 -7.171875 L 8.609375 -15.46875 L 8.46875 -15.46875 Z M 5.53125 -7.171875 "/></g></g></g><g fill="#004aad" fill-opacity="1"><g transform="translate(273.788751, 356.428062)"><g><path d="M 1.21875 -16.40625 L 1.21875 -18.375 L 15 -18.375 L 15 -16.40625 L 9.21875 -16.40625 L 9.21875 0 L 7 0 L 7 -16.40625 Z M 1.21875 -16.40625 "/></g></g></g><g fill="#004aad" fill-opacity="1"><g transform="translate(303.621445, 356.428062)"><g><path d="M 2.21875 0 L 2.21875 -18.375 L 13.3125 -18.375 L 13.3125 -16.40625 L 4.453125 -16.40625 L 4.453125 -10.1875 L 12.734375 -10.1875 L 12.734375 -8.21875 L 4.453125 -8.21875 L 4.453125 -1.96875 L 13.453125 -1.96875 L 13.453125 0 Z M 2.21875 0 "/></g></g></g></svg>