<svg xmlns="http://www.w3.org/2000/svg" xmlns:xlink="http://www.w3.org/1999/xlink" width="300" zoomAndPan="magnify" viewBox="0 0 224.87999 225" height="300" preserveAspectRatio="xMidYMid meet" version="1.0"><defs><g/><clipPath id="934ff2a604"><path d="M 52.25 21.558594 L 172.933594 21.558594 L 172.933594 161.734375 L 52.25 161.734375 Z M 52.25 21.558594 " clip-rule="nonzero"/></clipPath></defs><g clip-path="url(#934ff2a604)"><path fill="#004aad" d="M 109.335938 96.144531 L 77.457031 96.144531 L 77.457031 132.8125 L 52.542969 161.535156 L 52.269531 161.535156 L 52.269531 71.28125 L 77.457031 96.144531 L 77.457031 71.28125 L 130.933594 71.28125 Z M 172.605469 23.355469 L 152.261719 46.746094 L 52.269531 46.746094 L 52.269531 21.558594 L 172.605469 21.558594 Z M 172.605469 23.355469 " fill-opacity="1" fill-rule="nonzero"/></g><g fill="#004aad" fill-opacity="1"><g transform="translate(53.702588, 182.397258)"><g><path d="M 1.421875 0 L 1.421875 -16.28125 L 12.203125 -16.28125 L 12.203125 -13.453125 L 4.859375 -13.453125 L 4.859375 -9.5625 L 11.484375 -9.5625 L 11.484375 -6.734375 L 4.859375 -6.734375 L 4.859375 0 Z M 1.421875 0 "/></g></g></g><g fill="#004aad" fill-opacity="1"><g transform="translate(66.802089, 182.397258)"><g><path d="M 1.359375 0 L 1.359375 -12.21875 L 4.734375 -12.21875 L 4.734375 0 Z M 3.0625 -13.78125 C 2.5625 -13.78125 2.128906 -13.945312 1.765625 -14.28125 C 1.410156 -14.625 1.234375 -15.03125 1.234375 -15.5 C 1.234375 -15.976562 1.410156 -16.382812 1.765625 -16.71875 C 2.128906 -17.050781 2.5625 -17.21875 3.0625 -17.21875 C 3.5625 -17.21875 3.988281 -17.050781 4.34375 -16.71875 C 4.707031 -16.382812 4.890625 -15.976562 4.890625 -15.5 C 4.890625 -15.03125 4.707031 -14.625 4.34375 -14.28125 C 3.988281 -13.945312 3.5625 -13.78125 3.0625 -13.78125 Z M 3.0625 -13.78125 "/></g></g></g><g fill="#004aad" fill-opacity="1"><g transform="translate(72.894513, 182.397258)"><g><path d="M 4.734375 -7.0625 L 4.734375 0 L 1.359375 0 L 1.359375 -12.21875 L 4.578125 -12.21875 L 4.578125 -10.0625 L 4.71875 -10.0625 C 5 -10.769531 5.453125 -11.332031 6.078125 -11.75 C 6.710938 -12.164062 7.484375 -12.375 8.390625 -12.375 C 9.671875 -12.375 10.691406 -11.960938 11.453125 -11.140625 C 12.222656 -10.328125 12.609375 -9.207031 12.609375 -7.78125 L 12.609375 0 L 9.21875 0 L 9.21875 -7.171875 C 9.226562 -7.921875 9.039062 -8.503906 8.65625 -8.921875 C 8.269531 -9.347656 7.734375 -9.5625 7.046875 -9.5625 C 6.367188 -9.5625 5.816406 -9.34375 5.390625 -8.90625 C 4.960938 -8.46875 4.742188 -7.851562 4.734375 -7.0625 Z M 4.734375 -7.0625 "/></g></g></g><g fill="#004aad" fill-opacity="1"><g transform="translate(86.82118, 182.397258)"><g><path d="M 6.921875 0.234375 C 5.671875 0.234375 4.59375 -0.0195312 3.6875 -0.53125 C 2.78125 -1.039062 2.082031 -1.765625 1.59375 -2.703125 C 1.101562 -3.648438 0.859375 -4.765625 0.859375 -6.046875 C 0.859375 -7.304688 1.101562 -8.410156 1.59375 -9.359375 C 2.082031 -10.304688 2.769531 -11.046875 3.65625 -11.578125 C 4.539062 -12.109375 5.582031 -12.375 6.78125 -12.375 C 7.851562 -12.375 8.820312 -12.144531 9.6875 -11.6875 C 10.5625 -11.226562 11.25 -10.539062 11.75 -9.625 C 12.257812 -8.707031 12.515625 -7.554688 12.515625 -6.171875 L 12.515625 -5.234375 L 4.203125 -5.234375 C 4.203125 -4.316406 4.453125 -3.597656 4.953125 -3.078125 C 5.453125 -2.554688 6.125 -2.296875 6.96875 -2.296875 C 7.539062 -2.296875 8.03125 -2.410156 8.4375 -2.640625 C 8.851562 -2.878906 9.144531 -3.234375 9.3125 -3.703125 L 12.453125 -3.5 C 12.210938 -2.363281 11.609375 -1.457031 10.640625 -0.78125 C 9.671875 -0.101562 8.429688 0.234375 6.921875 0.234375 Z M 4.203125 -7.34375 L 9.328125 -7.34375 C 9.328125 -8.0625 9.09375 -8.65625 8.625 -9.125 C 8.164062 -9.601562 7.570312 -9.84375 6.84375 -9.84375 C 6.082031 -9.84375 5.460938 -9.597656 4.984375 -9.109375 C 4.503906 -8.617188 4.242188 -8.03125 4.203125 -7.34375 Z M 4.203125 -7.34375 "/></g></g></g><g fill="#004aad" fill-opacity="1"><g transform="translate(100.207005, 182.397258)"><g/></g></g><g fill="#004aad" fill-opacity="1"><g transform="translate(105.400678, 182.397258)"><g><path d="M 1.421875 0 L 1.421875 -16.28125 L 12.203125 -16.28125 L 12.203125 -13.453125 L 4.859375 -13.453125 L 4.859375 -9.5625 L 11.484375 -9.5625 L 11.484375 -6.734375 L 4.859375 -6.734375 L 4.859375 0 Z M 1.421875 0 "/></g></g></g><g fill="#004aad" fill-opacity="1"><g transform="translate(118.50018, 182.397258)"><g><path d="M 1.359375 0 L 1.359375 -12.21875 L 4.734375 -12.21875 L 4.734375 0 Z M 3.0625 -13.78125 C 2.5625 -13.78125 2.128906 -13.945312 1.765625 -14.28125 C 1.410156 -14.625 1.234375 -15.03125 1.234375 -15.5 C 1.234375 -15.976562 1.410156 -16.382812 1.765625 -16.71875 C 2.128906 -17.050781 2.5625 -17.21875 3.0625 -17.21875 C 3.5625 -17.21875 3.988281 -17.050781 4.34375 -16.71875 C 4.707031 -16.382812 4.890625 -15.976562 4.890625 -15.5 C 4.890625 -15.03125 4.707031 -14.625 4.34375 -14.28125 C 3.988281 -13.945312 3.5625 -13.78125 3.0625 -13.78125 Z M 3.0625 -13.78125 "/></g></g></g><g fill="#004aad" fill-opacity="1"><g transform="translate(124.592604, 182.397258)"><g><path d="M 4.734375 -7.0625 L 4.734375 0 L 1.359375 0 L 1.359375 -12.21875 L 4.578125 -12.21875 L 4.578125 -10.0625 L 4.71875 -10.0625 C 5 -10.769531 5.453125 -11.332031 6.078125 -11.75 C 6.710938 -12.164062 7.484375 -12.375 8.390625 -12.375 C 9.671875 -12.375 10.691406 -11.960938 11.453125 -11.140625 C 12.222656 -10.328125 12.609375 -9.207031 12.609375 -7.78125 L 12.609375 0 L 9.21875 0 L 9.21875 -7.171875 C 9.226562 -7.921875 9.039062 -8.503906 8.65625 -8.921875 C 8.269531 -9.347656 7.734375 -9.5625 7.046875 -9.5625 C 6.367188 -9.5625 5.816406 -9.34375 5.390625 -8.90625 C 4.960938 -8.46875 4.742188 -7.851562 4.734375 -7.0625 Z M 4.734375 -7.0625 "/></g></g></g><g fill="#004aad" fill-opacity="1"><g transform="translate(138.519271, 182.397258)"><g><path d="M 1.359375 0 L 1.359375 -12.21875 L 4.734375 -12.21875 L 4.734375 0 Z M 3.0625 -13.78125 C 2.5625 -13.78125 2.128906 -13.945312 1.765625 -14.28125 C 1.410156 -14.625 1.234375 -15.03125 1.234375 -15.5 C 1.234375 -15.976562 1.410156 -16.382812 1.765625 -16.71875 C 2.128906 -17.050781 2.5625 -17.21875 3.0625 -17.21875 C 3.5625 -17.21875 3.988281 -17.050781 4.34375 -16.71875 C 4.707031 -16.382812 4.890625 -15.976562 4.890625 -15.5 C 4.890625 -15.03125 4.707031 -14.625 4.34375 -14.28125 C 3.988281 -13.945312 3.5625 -13.78125 3.0625 -13.78125 Z M 3.0625 -13.78125 "/></g></g></g><g fill="#004aad" fill-opacity="1"><g transform="translate(144.611695, 182.397258)"><g><path d="M 11.515625 -8.734375 L 8.40625 -8.546875 C 8.320312 -8.929688 8.109375 -9.265625 7.765625 -9.546875 C 7.421875 -9.828125 6.957031 -9.96875 6.375 -9.96875 C 5.84375 -9.96875 5.394531 -9.859375 5.03125 -9.640625 C 4.675781 -9.421875 4.5 -9.128906 4.5 -8.765625 C 4.5 -8.472656 4.613281 -8.222656 4.84375 -8.015625 C 5.082031 -7.816406 5.484375 -7.65625 6.046875 -7.53125 L 8.265625 -7.09375 C 10.609375 -6.613281 11.785156 -5.507812 11.796875 -3.78125 C 11.796875 -2.976562 11.5625 -2.273438 11.09375 -1.671875 C 10.625 -1.066406 9.976562 -0.597656 9.15625 -0.265625 C 8.34375 0.0664062 7.410156 0.234375 6.359375 0.234375 C 4.734375 0.234375 3.441406 -0.0976562 2.484375 -0.765625 C 1.523438 -1.441406 0.96875 -2.363281 0.8125 -3.53125 L 4.140625 -3.71875 C 4.242188 -3.21875 4.488281 -2.835938 4.875 -2.578125 C 5.257812 -2.328125 5.753906 -2.203125 6.359375 -2.203125 C 6.953125 -2.203125 7.429688 -2.316406 7.796875 -2.546875 C 8.160156 -2.785156 8.34375 -3.082031 8.34375 -3.4375 C 8.332031 -4.039062 7.8125 -4.445312 6.78125 -4.65625 L 4.671875 -5.078125 C 2.304688 -5.546875 1.128906 -6.710938 1.140625 -8.578125 C 1.128906 -9.753906 1.597656 -10.679688 2.546875 -11.359375 C 3.492188 -12.035156 4.75 -12.375 6.3125 -12.375 C 7.851562 -12.375 9.066406 -12.046875 9.953125 -11.390625 C 10.847656 -10.742188 11.367188 -9.859375 11.515625 -8.734375 Z M 11.515625 -8.734375 "/></g></g></g><g fill="#004aad" fill-opacity="1"><g transform="translate(157.194213, 182.397258)"><g><path d="M 4.734375 -7.0625 L 4.734375 0 L 1.359375 0 L 1.359375 -16.28125 L 4.640625 -16.28125 L 4.640625 -10.0625 L 4.78125 -10.0625 C 5.0625 -10.78125 5.507812 -11.34375 6.125 -11.75 C 6.738281 -12.164062 7.507812 -12.375 8.4375 -12.375 C 9.707031 -12.375 10.726562 -11.960938 11.5 -11.140625 C 12.28125 -10.328125 12.664062 -9.207031 12.65625 -7.78125 L 12.65625 0 L 9.265625 0 L 9.265625 -7.171875 C 9.273438 -7.921875 9.085938 -8.503906 8.703125 -8.921875 C 8.316406 -9.347656 7.78125 -9.5625 7.09375 -9.5625 C 6.40625 -9.5625 5.84375 -9.34375 5.40625 -8.90625 C 4.96875 -8.46875 4.742188 -7.851562 4.734375 -7.0625 Z M 4.734375 -7.0625 "/></g></g></g><g fill="#004aad" fill-opacity="1"><g transform="translate(44.570603, 199.848234)"><g><path d="M 8.796875 -6.53125 L 7.640625 -6.53125 C 7.546875 -6.96875 7.367188 -7.335938 7.109375 -7.640625 C 6.847656 -7.941406 6.53125 -8.164062 6.15625 -8.3125 C 5.789062 -8.46875 5.394531 -8.546875 4.96875 -8.546875 C 4.394531 -8.546875 3.875 -8.398438 3.40625 -8.109375 C 2.945312 -7.828125 2.578125 -7.398438 2.296875 -6.828125 C 2.023438 -6.265625 1.890625 -5.570312 1.890625 -4.75 C 1.890625 -3.925781 2.023438 -3.226562 2.296875 -2.65625 C 2.578125 -2.09375 2.945312 -1.664062 3.40625 -1.375 C 3.875 -1.09375 4.394531 -0.953125 4.96875 -0.953125 C 5.394531 -0.953125 5.789062 -1.023438 6.15625 -1.171875 C 6.53125 -1.328125 6.847656 -1.554688 7.109375 -1.859375 C 7.367188 -2.160156 7.546875 -2.53125 7.640625 -2.96875 L 8.796875 -2.96875 C 8.679688 -2.320312 8.441406 -1.765625 8.078125 -1.296875 C 7.710938 -0.835938 7.257812 -0.484375 6.71875 -0.234375 C 6.1875 0.00390625 5.601562 0.125 4.96875 0.125 C 4.15625 0.125 3.429688 -0.0703125 2.796875 -0.46875 C 2.171875 -0.863281 1.675781 -1.425781 1.3125 -2.15625 C 0.957031 -2.882812 0.78125 -3.75 0.78125 -4.75 C 0.78125 -5.75 0.957031 -6.613281 1.3125 -7.34375 C 1.675781 -8.070312 2.171875 -8.632812 2.796875 -9.03125 C 3.429688 -9.425781 4.15625 -9.625 4.96875 -9.625 C 5.601562 -9.625 6.1875 -9.5 6.71875 -9.25 C 7.257812 -9.007812 7.710938 -8.65625 8.078125 -8.1875 C 8.441406 -7.726562 8.679688 -7.175781 8.796875 -6.53125 Z M 8.796875 -6.53125 "/></g></g></g><g fill="#004aad" fill-opacity="1"><g transform="translate(61.109173, 199.848234)"><g><path d="M 9.171875 -4.75 C 9.171875 -3.75 8.988281 -2.882812 8.625 -2.15625 C 8.257812 -1.425781 7.757812 -0.863281 7.125 -0.46875 C 6.5 -0.0703125 5.78125 0.125 4.96875 0.125 C 4.15625 0.125 3.429688 -0.0703125 2.796875 -0.46875 C 2.171875 -0.863281 1.675781 -1.425781 1.3125 -2.15625 C 0.957031 -2.882812 0.78125 -3.75 0.78125 -4.75 C 0.78125 -5.75 0.957031 -6.613281 1.3125 -7.34375 C 1.675781 -8.070312 2.171875 -8.632812 2.796875 -9.03125 C 3.429688 -9.425781 4.15625 -9.625 4.96875 -9.625 C 5.78125 -9.625 6.5 -9.425781 7.125 -9.03125 C 7.757812 -8.632812 8.257812 -8.070312 8.625 -7.34375 C 8.988281 -6.613281 9.171875 -5.75 9.171875 -4.75 Z M 8.046875 -4.75 C 8.046875 -5.570312 7.910156 -6.265625 7.640625 -6.828125 C 7.367188 -7.398438 7 -7.828125 6.53125 -8.109375 C 6.0625 -8.398438 5.539062 -8.546875 4.96875 -8.546875 C 4.394531 -8.546875 3.875 -8.398438 3.40625 -8.109375 C 2.945312 -7.828125 2.578125 -7.398438 2.296875 -6.828125 C 2.023438 -6.265625 1.890625 -5.570312 1.890625 -4.75 C 1.890625 -3.925781 2.023438 -3.226562 2.296875 -2.65625 C 2.578125 -2.09375 2.945312 -1.664062 3.40625 -1.375 C 3.875 -1.09375 4.394531 -0.953125 4.96875 -0.953125 C 5.539062 -0.953125 6.0625 -1.09375 6.53125 -1.375 C 7 -1.664062 7.367188 -2.09375 7.640625 -2.65625 C 7.910156 -3.226562 8.046875 -3.925781 8.046875 -4.75 Z M 8.046875 -4.75 "/></g></g></g><g fill="#004aad" fill-opacity="1"><g transform="translate(78.092894, 199.848234)"><g><path d="M 1.15625 0 L 1.15625 -9.5 L 4.359375 -9.5 C 5.097656 -9.5 5.707031 -9.375 6.1875 -9.125 C 6.664062 -8.875 7.019531 -8.523438 7.25 -8.078125 C 7.476562 -7.640625 7.59375 -7.144531 7.59375 -6.59375 C 7.59375 -5.957031 7.445312 -5.40625 7.15625 -4.9375 C 6.863281 -4.46875 6.414062 -4.128906 5.8125 -3.921875 L 7.953125 0 L 6.625 0 L 4.625 -3.71875 C 4.539062 -3.71875 4.457031 -3.71875 4.375 -3.71875 L 2.296875 -3.71875 L 2.296875 0 Z M 2.296875 -4.75 L 4.34375 -4.75 C 5.101562 -4.75 5.644531 -4.910156 5.96875 -5.234375 C 6.289062 -5.566406 6.453125 -6.019531 6.453125 -6.59375 C 6.453125 -7.15625 6.289062 -7.609375 5.96875 -7.953125 C 5.644531 -8.304688 5.097656 -8.484375 4.328125 -8.484375 L 2.296875 -8.484375 Z M 2.296875 -4.75 "/></g></g></g><g fill="#004aad" fill-opacity="1"><g transform="translate(93.481491, 199.848234)"><g><path d="M 1.15625 0 L 1.15625 -9.5 L 4.359375 -9.5 C 5.109375 -9.5 5.71875 -9.363281 6.1875 -9.09375 C 6.664062 -8.832031 7.019531 -8.472656 7.25 -8.015625 C 7.476562 -7.554688 7.59375 -7.050781 7.59375 -6.5 C 7.59375 -5.9375 7.476562 -5.425781 7.25 -4.96875 C 7.019531 -4.507812 6.664062 -4.144531 6.1875 -3.875 C 5.71875 -3.601562 5.113281 -3.46875 4.375 -3.46875 L 2.296875 -3.46875 L 2.296875 0 Z M 2.296875 -4.484375 L 4.34375 -4.484375 C 5.101562 -4.484375 5.644531 -4.675781 5.96875 -5.0625 C 6.289062 -5.445312 6.453125 -5.925781 6.453125 -6.5 C 6.453125 -7.070312 6.289062 -7.546875 5.96875 -7.921875 C 5.644531 -8.296875 5.097656 -8.484375 4.328125 -8.484375 L 2.296875 -8.484375 Z M 2.296875 -4.484375 "/></g></g></g><g fill="#004aad" fill-opacity="1"><g transform="translate(108.814441, 199.848234)"><g><path d="M 9.171875 -4.75 C 9.171875 -3.75 8.988281 -2.882812 8.625 -2.15625 C 8.257812 -1.425781 7.757812 -0.863281 7.125 -0.46875 C 6.5 -0.0703125 5.78125 0.125 4.96875 0.125 C 4.15625 0.125 3.429688 -0.0703125 2.796875 -0.46875 C 2.171875 -0.863281 1.675781 -1.425781 1.3125 -2.15625 C 0.957031 -2.882812 0.78125 -3.75 0.78125 -4.75 C 0.78125 -5.75 0.957031 -6.613281 1.3125 -7.34375 C 1.675781 -8.070312 2.171875 -8.632812 2.796875 -9.03125 C 3.429688 -9.425781 4.15625 -9.625 4.96875 -9.625 C 5.78125 -9.625 6.5 -9.425781 7.125 -9.03125 C 7.757812 -8.632812 8.257812 -8.070312 8.625 -7.34375 C 8.988281 -6.613281 9.171875 -5.75 9.171875 -4.75 Z M 8.046875 -4.75 C 8.046875 -5.570312 7.910156 -6.265625 7.640625 -6.828125 C 7.367188 -7.398438 7 -7.828125 6.53125 -8.109375 C 6.0625 -8.398438 5.539062 -8.546875 4.96875 -8.546875 C 4.394531 -8.546875 3.875 -8.398438 3.40625 -8.109375 C 2.945312 -7.828125 2.578125 -7.398438 2.296875 -6.828125 C 2.023438 -6.265625 1.890625 -5.570312 1.890625 -4.75 C 1.890625 -3.925781 2.023438 -3.226562 2.296875 -2.65625 C 2.578125 -2.09375 2.945312 -1.664062 3.40625 -1.375 C 3.875 -1.09375 4.394531 -0.953125 4.96875 -0.953125 C 5.539062 -0.953125 6.0625 -1.09375 6.53125 -1.375 C 7 -1.664062 7.367188 -2.09375 7.640625 -2.65625 C 7.910156 -3.226562 8.046875 -3.925781 8.046875 -4.75 Z M 8.046875 -4.75 "/></g></g></g><g fill="#004aad" fill-opacity="1"><g transform="translate(125.798166, 199.848234)"><g><path d="M 1.15625 0 L 1.15625 -9.5 L 4.359375 -9.5 C 5.097656 -9.5 5.707031 -9.375 6.1875 -9.125 C 6.664062 -8.875 7.019531 -8.523438 7.25 -8.078125 C 7.476562 -7.640625 7.59375 -7.144531 7.59375 -6.59375 C 7.59375 -5.957031 7.445312 -5.40625 7.15625 -4.9375 C 6.863281 -4.46875 6.414062 -4.128906 5.8125 -3.921875 L 7.953125 0 L 6.625 0 L 4.625 -3.71875 C 4.539062 -3.71875 4.457031 -3.71875 4.375 -3.71875 L 2.296875 -3.71875 L 2.296875 0 Z M 2.296875 -4.75 L 4.34375 -4.75 C 5.101562 -4.75 5.644531 -4.910156 5.96875 -5.234375 C 6.289062 -5.566406 6.453125 -6.019531 6.453125 -6.59375 C 6.453125 -7.15625 6.289062 -7.609375 5.96875 -7.953125 C 5.644531 -8.304688 5.097656 -8.484375 4.328125 -8.484375 L 2.296875 -8.484375 Z M 2.296875 -4.75 "/></g></g></g><g fill="#004aad" fill-opacity="1"><g transform="translate(141.186768, 199.848234)"><g><path d="M 1.546875 0 L 0.328125 0 L 3.828125 -9.5 L 5.015625 -9.5 L 8.5 0 L 7.296875 0 L 6.34375 -2.6875 L 2.5 -2.6875 Z M 2.859375 -3.71875 L 5.96875 -3.71875 L 4.453125 -8 L 4.375 -8 Z M 2.859375 -3.71875 "/></g></g></g><g fill="#004aad" fill-opacity="1"><g transform="translate(157.057612, 199.848234)"><g><path d="M 0.625 -8.484375 L 0.625 -9.5 L 7.75 -9.5 L 7.75 -8.484375 L 4.765625 -8.484375 L 4.765625 0 L 3.625 0 L 3.625 -8.484375 Z M 0.625 -8.484375 "/></g></g></g><g fill="#004aad" fill-opacity="1"><g transform="translate(172.483305, 199.848234)"><g><path d="M 1.15625 0 L 1.15625 -9.5 L 6.890625 -9.5 L 6.890625 -8.484375 L 2.296875 -8.484375 L 2.296875 -5.265625 L 6.59375 -5.265625 L 6.59375 -4.25 L 2.296875 -4.25 L 2.296875 -1.015625 L 6.953125 -1.015625 L 6.953125 0 Z M 1.15625 0 "/></g></g></g></svg>